HIERARCHY
ROOT Hips
{
    OFFSET 0.0 0.0 0.0
    CHANNELS 6 Xposition Yposition Zposition Zrotation Xrotation Yrotation
    JOINT Spine
    {
        OFFSET 0.0 10.0 0.0
        CHANNELS 3 Zrotation Xrotation Yrotation
        JOINT Spine1
        {
            OFFSET 0.0 10.0 0.0
            CHANNELS 3 Zrotation Xrotation Yrotation
            JOINT Neck
            {
                OFFSET 0.0 10.0 0.0
                CHANNELS 3 Zrotation Xrotation Yrotation
                JOINT Head
                {
                    OFFSET 0.0 10.0 0.0
                    CHANNELS 3 Zrotation Xrotation Yrotation
                    End Site
                    {
                        OFFSET 0.0 10.0 0.0
                    }
                }
            }
            JOINT LeftArm
            {
                OFFSET -5.0 8.0 0.0
                CHANNELS 3 Zrotation Xrotation Yrotation
                JOINT LeftForeArm
                {
                    OFFSET -10.0 0.0 0.0
                    CHANNELS 3 Zrotation Xrotation Yrotation
                    JOINT LeftHand
                    {
                        OFFSET -10.0 0.0 0.0
                        CHANNELS 3 Zrotation Xrotation Yrotation
                        End Site
                        {
                            OFFSET -5.0 0.0 0.0
                        }
                    }
                }
            }
            JOINT RightArm
            {
                OFFSET 5.0 8.0 0.0
                CHANNELS 3 Zrotation Xrotation Yrotation
                JOINT RightForeArm
                {
                    OFFSET 10.0 0.0 0.0
                    CHANNELS 3 Zrotation Xrotation Yrotation
                    JOINT RightHand
                    {
                        OFFSET 10.0 0.0 0.0
                        CHANNELS 3 Zrotation Xrotation Yrotation
                        End Site
                        {
                            OFFSET 5.0 0.0 0.0
                        }
                    }
                }
            }
        }
    }
    JOINT LeftUpLeg
    {
        OFFSET -5.0 -5.0 0.0
        CHANNELS 3 Zrotation Xrotation Yrotation
        JOINT LeftLeg
        {
            OFFSET 0.0 -15.0 0.0
            CHANNELS 3 Zrotation Xrotation Yrotation
            JOINT LeftFoot
            {
                OFFSET 0.0 -15.0 0.0
                CHANNELS 3 Zrotation Xrotation Yrotation
                End Site
                {
                    OFFSET 0.0 -5.0 0.0
                }
            }
        }
    }
    JOINT RightUpLeg
    {
        OFFSET 5.0 -5.0 0.0
        CHANNELS 3 Zrotation Xrotation Yrotation
        JOINT RightLeg
        {
            OFFSET 0.0 -15.0 0.0
            CHANNELS 3 Zrotation Xrotation Yrotation
            JOINT RightFoot
            {
                OFFSET 0.0 -15.0 0.0
                CHANNELS 3 Zrotation Xrotation Yrotation
                End Site
                {
                    OFFSET 0.0 -5.0 0.0
                }
            }
        }
    }
}
MOTION
Frames: 10
Frame Time: 0.033333
-0.000000 100.000000 18.000000 0.000000 0.000000 0.000000 0.000000 0.000000 0.000000 0.000000 0.000000 0.000000 0.000000 0.000000 0.000000 0.000000 0.000000 0.000000 -0.000000 0.000000 0.000000 -0.000000 0.000000 0.000000 0.000000 0.000000 0.000000 0.000000 0.000000 0.000000 0.000000 0.000000 0.000000 0.000000 0.000000 0.000000 0.000000 0.000000 0.000000 0.000000 0.000000 0.000000 0.000000 0.000000 0.000000 -0.000000 0.000000 0.000000 -0.000000 0.000000 0.000000 0.000000 0.000000 0.000000
0.079647 100.534740 18.822642 0.000000 0.000000 0.000000 0.000000 0.000000 0.000000 0.000000 0.000000 0.000000 0.000000 0.000000 0.000000 0.000000 0.000000 0.000000 12.338400 0.000000 0.000000 6.169200 0.000000 0.000000 0.000000 0.000000 0.000000 -12.338400 0.000000 0.000000 -6.169200 0.000000 0.000000 0.000000 0.000000 0.000000 -9.841058 0.000000 0.000000 -2.952317 0.000000 0.000000 0.000000 0.000000 0.000000 9.841058 0.000000 0.000000 2.952317 0.000000 0.000000 0.000000 0.000000 0.000000
0.165823 101.133875 19.639558 0.000000 0.000000 0.000000 0.000000 0.000000 0.000000 0.000000 0.000000 0.000000 0.000000 0.000000 0.000000 0.000000 0.000000 0.000000 23.349272 0.000000 0.000000 11.674636 0.000000 0.000000 0.000000 0.000000 0.000000 -23.349272 0.000000 0.000000 -11.674636 0.000000 0.000000 0.000000 0.000000 0.000000 -19.051986 0.000000 0.000000 -5.715596 0.000000 0.000000 0.000000 0.000000 0.000000 19.051986 0.000000 0.000000 5.715596 0.000000 0.000000 0.000000 0.000000 0.000000
0.264481 101.849911 20.445085 0.000000 0.000000 0.000000 0.000000 0.000000 0.000000 0.000000 0.000000 0.000000 0.000000 0.000000 0.000000 0.000000 0.000000 0.000000 31.899405 0.000000 0.000000 15.949703 0.000000 0.000000 0.000000 0.000000 0.000000 -31.899405 0.000000 0.000000 -15.949703 0.000000 0.000000 0.000000 0.000000 0.000000 -27.069685 0.000000 0.000000 -8.120906 0.000000 0.000000 0.000000 0.000000 0.000000 27.069685 0.000000 0.000000 8.120906 0.000000 0.000000 0.000000 0.000000 0.000000
0.380461 102.713238 21.233683 0.000000 0.000000 0.000000 0.000000 0.000000 0.000000 0.000000 0.000000 0.000000 0.000000 0.000000 0.000000 0.000000 0.000000 0.000000 37.212173 0.000000 0.000000 18.606087 0.000000 0.000000 0.000000 0.000000 0.000000 -37.212173 0.000000 0.000000 -18.606087 0.000000 0.000000 0.000000 0.000000 0.000000 -33.456629 0.000000 0.000000 -10.036989 0.000000 0.000000 0.000000 0.000000 0.000000 33.456629 0.000000 0.000000 10.036989 0.000000 0.000000 0.000000 0.000000 0.000000
0.517037 103.725003 22.000000 0.000000 0.000000 0.000000 0.000000 0.000000 0.000000 0.000000 0.000000 0.000000 0.000000 0.000000 0.000000 0.000000 0.000000 0.000000 38.971143 0.000000 0.000000 19.485572 0.000000 0.000000 0.000000 0.000000 0.000000 -38.971143 0.000000 0.000000 -19.485572 0.000000 0.000000 0.000000 0.000000 0.000000 -37.943530 0.000000 0.000000 -11.383059 0.000000 0.000000 0.000000 0.000000 0.000000 37.943530 0.000000 0.000000 11.383059 0.000000 0.000000 0.000000 0.000000 0.000000
0.675571 104.854102 22.738926 0.000000 0.000000 0.000000 0.000000 0.000000 0.000000 0.000000 0.000000 0.000000 0.000000 0.000000 0.000000 0.000000 0.000000 0.000000 37.348474 0.000000 0.000000 18.674237 0.000000 0.000000 0.000000 0.000000 0.000000 -37.348474 0.000000 0.000000 -18.674237 0.000000 0.000000 0.000000 0.000000 0.000000 -40.450850 0.000000 0.000000 -12.135255 0.000000 0.000000 0.000000 0.000000 0.000000 40.450850 0.000000 0.000000 12.135255 0.000000 0.000000 0.000000 0.000000 0.000000
0.855298 106.038774 23.445653 0.000000 0.000000 0.000000 0.000000 0.000000 0.000000 0.000000 0.000000 0.000000 0.000000 0.000000 0.000000 0.000000 0.000000 0.000000 32.954332 0.000000 0.000000 16.477166 0.000000 0.000000 0.000000 0.000000 0.000000 -32.954332 0.000000 0.000000 -16.477166 0.000000 0.000000 0.000000 0.000000 0.000000 -41.086651 0.000000 0.000000 -12.325995 0.000000 0.000000 0.000000 0.000000 0.000000 41.086651 0.000000 0.000000 12.325995 0.000000 0.000000 0.000000 0.000000 0.000000
1.053277 107.192629 24.115724 0.000000 0.000000 0.000000 0.000000 0.000000 0.000000 0.000000 0.000000 0.000000 0.000000 0.000000 0.000000 0.000000 0.000000 0.000000 26.716981 0.000000 0.000000 13.358491 0.000000 0.000000 0.000000 0.000000 0.000000 -26.716981 0.000000 0.000000 -13.358491 0.000000 0.000000 0.000000 0.000000 0.000000 -40.121378 0.000000 0.000000 -12.036413 0.000000 0.000000 0.000000 0.000000 0.000000 40.121378 0.000000 0.000000 12.036413 0.000000 0.000000 0.000000 0.000000 0.000000
1.264481 108.214376 24.745085 0.000000 0.000000 0.000000 0.000000 0.000000 0.000000 0.000000 0.000000 0.000000 0.000000 0.000000 0.000000 0.000000 0.000000 0.000000 19.714917 0.000000 0.000000 9.857458 0.000000 0.000000 0.000000 0.000000 0.000000 -19.714917 0.000000 0.000000 -9.857458 0.000000 0.000000 0.000000 0.000000 0.000000 -37.943189 0.000000 0.000000 -11.382957 0.000000 0.000000 0.000000 0.000000 0.000000 37.943189 0.000000 0.000000 11.382957 0.000000 0.000000 0.000000 0.000000 0.000000
